<?xml version="1.0" encoding="UTF-8" standalone="no"?>
<!DOCTYPE svg PUBLIC "-//W3C//DTD SVG 1.1//EN"
 "http://www.w3.org/Graphics/SVG/1.1/DTD/svg11.dtd">
<!-- Generated by graphviz version 2.43.0 (0)
 -->
<!-- Title: %3 Pages: 1 -->
<svg width="1357pt" height="332pt"
 viewBox="0.00 0.00 1357.21 332.00" xmlns="http://www.w3.org/2000/svg" xmlns:xlink="http://www.w3.org/1999/xlink">
<g id="graph0" class="graph" transform="scale(1 1) rotate(0) translate(4 328)">
<title>%3</title>
<polygon fill="white" stroke="transparent" points="-4,4 -4,-328 1353.21,-328 1353.21,4 -4,4"/>
<!-- [root] aws_instance.server (expand) -->
<g id="node1" class="node">
<title>[root] aws_instance.server (expand)</title>
<polygon fill="none" stroke="black" points="870.88,-180 709.88,-180 709.88,-144 870.88,-144 870.88,-180"/>
<text text-anchor="middle" x="790.38" y="-158.3" font-family="Times,serif" font-size="14.00">aws_instance.server</text>
</g>
<!-- [root] provider[&quot;registry.terraform.io/hashicorp/aws&quot;] -->
<g id="node2" class="node">
<title>[root] provider[&quot;registry.terraform.io/hashicorp/aws&quot;]</title>
<polygon fill="none" stroke="black" points="325.38,-108 0.12,-90 325.38,-72 650.65,-90 325.38,-108"/>
<text text-anchor="middle" x="325.38" y="-86.3" font-family="Times,serif" font-size="14.00">provider[&quot;registry.terraform.io/hashicorp/aws&quot;]</text>
</g>
<!-- [root] aws_instance.server (expand)&#45;&gt;[root] provider[&quot;registry.terraform.io/hashicorp/aws&quot;] -->
<g id="edge1" class="edge">
<title>[root] aws_instance.server (expand)&#45;&gt;[root] provider[&quot;registry.terraform.io/hashicorp/aws&quot;]</title>
<path fill="none" stroke="black" d="M709.65,-148.85C628.47,-136.63 503.45,-117.81 418.22,-104.98"/>
<polygon fill="black" stroke="black" points="418.7,-101.51 408.29,-103.48 417.65,-108.43 418.7,-101.51"/>
</g>
<!-- [root] var.ami -->
<g id="node3" class="node">
<title>[root] var.ami</title>
<polygon fill="none" stroke="black" points="731.88,-108 668.88,-108 668.88,-72 737.88,-72 737.88,-102 731.88,-108"/>
<polyline fill="none" stroke="black" points="731.88,-108 731.88,-102 "/>
<polyline fill="none" stroke="black" points="737.88,-102 731.88,-102 "/>
<text text-anchor="middle" x="703.38" y="-86.3" font-family="Times,serif" font-size="14.00">var.ami</text>
</g>
<!-- [root] aws_instance.server (expand)&#45;&gt;[root] var.ami -->
<g id="edge2" class="edge">
<title>[root] aws_instance.server (expand)&#45;&gt;[root] var.ami</title>
<path fill="none" stroke="black" d="M768.88,-143.7C757.92,-134.88 744.44,-124.03 732.56,-114.47"/>
<polygon fill="black" stroke="black" points="734.63,-111.65 724.64,-108.1 730.24,-117.1 734.63,-111.65"/>
</g>
<!-- [root] var.env -->
<g id="node4" class="node">
<title>[root] var.env</title>
<polygon fill="none" stroke="black" points="818.38,-108 756.38,-108 756.38,-72 824.38,-72 824.38,-102 818.38,-108"/>
<polyline fill="none" stroke="black" points="818.38,-108 818.38,-102 "/>
<polyline fill="none" stroke="black" points="824.38,-102 818.38,-102 "/>
<text text-anchor="middle" x="790.38" y="-86.3" font-family="Times,serif" font-size="14.00">var.env</text>
</g>
<!-- [root] aws_instance.server (expand)&#45;&gt;[root] var.env -->
<g id="edge3" class="edge">
<title>[root] aws_instance.server (expand)&#45;&gt;[root] var.env</title>
<path fill="none" stroke="black" d="M790.38,-143.7C790.38,-135.98 790.38,-126.71 790.38,-118.11"/>
<polygon fill="black" stroke="black" points="793.88,-118.1 790.38,-108.1 786.88,-118.1 793.88,-118.1"/>
</g>
<!-- [root] var.instance_type -->
<g id="node5" class="node">
<title>[root] var.instance_type</title>
<polygon fill="none" stroke="black" points="977.88,-108 842.88,-108 842.88,-72 983.88,-72 983.88,-102 977.88,-108"/>
<polyline fill="none" stroke="black" points="977.88,-108 977.88,-102 "/>
<polyline fill="none" stroke="black" points="983.88,-102 977.88,-102 "/>
<text text-anchor="middle" x="913.38" y="-86.3" font-family="Times,serif" font-size="14.00">var.instance_type</text>
</g>
<!-- [root] aws_instance.server (expand)&#45;&gt;[root] var.instance_type -->
<g id="edge4" class="edge">
<title>[root] aws_instance.server (expand)&#45;&gt;[root] var.instance_type</title>
<path fill="none" stroke="black" d="M820.47,-143.88C836.7,-134.64 856.92,-123.13 874.35,-113.21"/>
<polygon fill="black" stroke="black" points="876.22,-116.18 883.18,-108.19 872.75,-110.09 876.22,-116.18"/>
</g>
<!-- [root] var.name -->
<g id="node6" class="node">
<title>[root] var.name</title>
<polygon fill="none" stroke="black" points="1078.38,-108 1002.38,-108 1002.38,-72 1084.38,-72 1084.38,-102 1078.38,-108"/>
<polyline fill="none" stroke="black" points="1078.38,-108 1078.38,-102 "/>
<polyline fill="none" stroke="black" points="1084.38,-102 1078.38,-102 "/>
<text text-anchor="middle" x="1043.38" y="-86.3" font-family="Times,serif" font-size="14.00">var.name</text>
</g>
<!-- [root] aws_instance.server (expand)&#45;&gt;[root] var.name -->
<g id="edge5" class="edge">
<title>[root] aws_instance.server (expand)&#45;&gt;[root] var.name</title>
<path fill="none" stroke="black" d="M860.72,-143.97C897.5,-134.75 943.43,-122.75 992.42,-108.19"/>
<polygon fill="black" stroke="black" points="993.68,-111.47 1002.26,-105.25 991.67,-104.76 993.68,-111.47"/>
</g>
<!-- [root] var.region -->
<g id="node7" class="node">
<title>[root] var.region</title>
<polygon fill="none" stroke="black" points="363.88,-36 280.88,-36 280.88,0 369.88,0 369.88,-30 363.88,-36"/>
<polyline fill="none" stroke="black" points="363.88,-36 363.88,-30 "/>
<polyline fill="none" stroke="black" points="369.88,-30 363.88,-30 "/>
<text text-anchor="middle" x="325.38" y="-14.3" font-family="Times,serif" font-size="14.00">var.region</text>
</g>
<!-- [root] provider[&quot;registry.terraform.io/hashicorp/aws&quot;]&#45;&gt;[root] var.region -->
<g id="edge8" class="edge">
<title>[root] provider[&quot;registry.terraform.io/hashicorp/aws&quot;]&#45;&gt;[root] var.region</title>
<path fill="none" stroke="black" d="M325.38,-71.7C325.38,-63.98 325.38,-54.71 325.38,-46.11"/>
<polygon fill="black" stroke="black" points="328.88,-46.1 325.38,-36.1 321.88,-46.1 328.88,-46.1"/>
</g>
<!-- [root] meta.count&#45;boundary (EachMode fixup) -->
<g id="node8" class="node">
<title>[root] meta.count&#45;boundary (EachMode fixup)</title>
<ellipse fill="none" stroke="black" cx="524.38" cy="-234" rx="222.86" ry="18"/>
<text text-anchor="middle" x="524.38" y="-230.3" font-family="Times,serif" font-size="14.00">[root] meta.count&#45;boundary (EachMode fixup)</text>
</g>
<!-- [root] meta.count&#45;boundary (EachMode fixup)&#45;&gt;[root] aws_instance.server (expand) -->
<g id="edge6" class="edge">
<title>[root] meta.count&#45;boundary (EachMode fixup)&#45;&gt;[root] aws_instance.server (expand)</title>
<path fill="none" stroke="black" d="M586.41,-216.68C624.99,-206.52 674.83,-193.41 715.59,-182.68"/>
<polygon fill="black" stroke="black" points="716.69,-186.01 725.47,-180.08 714.91,-179.24 716.69,-186.01"/>
</g>
<!-- [root] provider[&quot;registry.terraform.io/hashicorp/aws&quot;] (close) -->
<g id="node9" class="node">
<title>[root] provider[&quot;registry.terraform.io/hashicorp/aws&quot;] (close)</title>
<ellipse fill="none" stroke="black" cx="1057.38" cy="-234" rx="291.65" ry="18"/>
<text text-anchor="middle" x="1057.38" y="-230.3" font-family="Times,serif" font-size="14.00">[root] provider[&quot;registry.terraform.io/hashicorp/aws&quot;] (close)</text>
</g>
<!-- [root] provider[&quot;registry.terraform.io/hashicorp/aws&quot;] (close)&#45;&gt;[root] aws_instance.server (expand) -->
<g id="edge7" class="edge">
<title>[root] provider[&quot;registry.terraform.io/hashicorp/aws&quot;] (close)&#45;&gt;[root] aws_instance.server (expand)</title>
<path fill="none" stroke="black" d="M994.11,-216.41C955.5,-206.29 905.94,-193.3 865.37,-182.66"/>
<polygon fill="black" stroke="black" points="866.08,-179.23 855.52,-180.08 864.31,-186 866.08,-179.23"/>
</g>
<!-- [root] root -->
<g id="node10" class="node">
<title>[root] root</title>
<ellipse fill="none" stroke="black" cx="790.38" cy="-306" rx="58.49" ry="18"/>
<text text-anchor="middle" x="790.38" y="-302.3" font-family="Times,serif" font-size="14.00">[root] root</text>
</g>
<!-- [root] root&#45;&gt;[root] meta.count&#45;boundary (EachMode fixup) -->
<g id="edge9" class="edge">
<title>[root] root&#45;&gt;[root] meta.count&#45;boundary (EachMode fixup)</title>
<path fill="none" stroke="black" d="M747.35,-293.68C706.63,-282.96 644.73,-266.67 596.48,-253.97"/>
<polygon fill="black" stroke="black" points="597.27,-250.56 586.71,-251.4 595.49,-257.33 597.27,-250.56"/>
</g>
<!-- [root] root&#45;&gt;[root] provider[&quot;registry.terraform.io/hashicorp/aws&quot;] (close) -->
<g id="edge10" class="edge">
<title>[root] root&#45;&gt;[root] provider[&quot;registry.terraform.io/hashicorp/aws&quot;] (close)</title>
<path fill="none" stroke="black" d="M833.28,-293.75C873.89,-283.11 935.69,-266.9 984.11,-254.21"/>
<polygon fill="black" stroke="black" points="985.13,-257.56 993.92,-251.64 983.36,-250.79 985.13,-257.56"/>
</g>
</g>
</svg>
